<svg width="22" height="22" fill="none" xmlns="http://www.w3.org/2000/svg">
  <path d="m20.46 9.942-.57-2.28a.344.344 0 0 0 .273-.336v-.367c0-.798-.65-1.447-1.447-1.447h-2.595v-.758a.713.713 0 0 0-.712-.712H2.182a.713.713 0 0 0-.712.712V11a.344.344 0 1 0 .689 0V4.754c0-.013.01-.023.023-.023h13.227c.013 0 .023.01.023.023V11a.345.345 0 0 0 .69 0v-.39h4.064c.5 0 .925.329 1.07.78h-1.07a.344.344 0 0 0-.345.345v.735c0 .595.484 1.08 1.08 1.08h.39v1.515h-.9a2.185 2.185 0 0 0-2.062-1.47c-.954 0-1.766.616-2.062 1.47h-.166V12.47a.344.344 0 0 0-.689 0v2.595H8.285a2.185 2.185 0 0 0-2.062-1.47c-.953 0-1.766.616-2.061 1.47h-1.98a.023.023 0 0 1-.023-.023v-.758H3.65a.344.344 0 0 0 0-.689H.344a.344.344 0 0 0 0 .69H1.47v.757c0 .393.32.712.712.712h1.86v.023c0 1.203.978 2.182 2.181 2.182a2.184 2.184 0 0 0 2.182-2.182v-.023h7.763l-.001.023c0 1.203.979 2.182 2.182 2.182a2.184 2.184 0 0 0 2.181-2.182v-.023h1.125c.19 0 .345-.154.345-.345v-3.674c0-.907-.67-1.66-1.54-1.793ZM16.12 6.2h2.595c.418 0 .758.34.758.758v.023H16.12V6.2Zm0 3.72v-2.25h3.061l.563 2.25H16.12ZM6.223 17.27c-.823 0-1.492-.67-1.492-1.493 0-.823.67-1.493 1.492-1.493.823 0 1.493.67 1.493 1.493 0 .823-.67 1.493-1.493 1.493Zm12.126 0c-.823 0-1.493-.67-1.493-1.493 0-.823.67-1.493 1.493-1.493.823 0 1.492.67 1.492 1.493 0 .823-.67 1.493-1.492 1.493Zm2.962-4.41h-.39a.39.39 0 0 1-.39-.39v-.39h.78v.78Z" fill="#fff"/>
  <path d="M6.224 15.065a.713.713 0 1 0 .001 1.425.713.713 0 0 0-.001-1.425ZM18.349 15.065a.713.713 0 1 0 .001 1.426.713.713 0 0 0-.001-1.426ZM14.307 13.595H9.163a.344.344 0 1 0 0 .689h5.144a.345.345 0 0 0 0-.69ZM5.489 12.125h-4.41a.344.344 0 0 0 0 .689h4.41a.345.345 0 0 0 0-.689ZM11.978 7.45a.345.345 0 0 0-.487 0l-3.063 3.063-1.594-1.594a.344.344 0 1 0-.487.487l1.837 1.838a.343.343 0 0 0 .487 0l3.307-3.307a.344.344 0 0 0 0-.487Z" fill="#fff"/>
</svg>
