<svg width="12" height="11" fill="none" xmlns="http://www.w3.org/2000/svg">
  <path d="M11.786 1.64a.229.229 0 0 0-.288-.054c-.1.048-.202.088-.307.119.164-.225.288-.481.365-.755.034-.137-.042-.279-.17-.315a.227.227 0 0 0-.2.038 4.848 4.848 0 0 1-1.156.485C9.202.318 7.94.214 7.001.907c-.723.525-1.121 1.432-1.038 2.365-1.567-.143-3.01-.977-3.984-2.304a.241.241 0 0 0-.204-.096.239.239 0 0 0-.192.126c-.33.58-.426 1.28-.265 1.938.082.338.224.656.417.937a1.268 1.268 0 0 1-.244-.168.23.23 0 0 0-.338.038.27.27 0 0 0-.053.162c.014.955.502 1.828 1.28 2.29a1.676 1.676 0 0 1-.31-.07c-.127-.042-.26.036-.299.172a.276.276 0 0 0 .01.18c.338.812 1.013 1.405 1.82 1.6a3.992 3.992 0 0 1-2.533.56.237.237 0 0 0-.257.176.267.267 0 0 0 .111.304 6.835 6.835 0 0 0 3.55 1.083 5.806 5.806 0 0 0 3.37-1.106c1.904-1.357 3.09-3.792 2.926-5.972.407-.323.76-.718 1.044-1.168a.273.273 0 0 0-.026-.314Z" fill="#fff"/>
</svg>
