<!-- Generated by IcoMoon.io -->
<svg version="1.1" xmlns="http://www.w3.org/2000/svg" width="32" height="32" viewBox="0 0 32 32">
<title>arrow</title>
<path fill="#fff" d="M13.584 16.624l-0.003-0.613c0-2.55 0.149-4.877 0.374-6.392l0.197-0.944c0.11-0.498 0.254-1.067 0.405-1.357 0.528-1.021 1.571-1.708 2.776-1.718h0.102c0.75 0.026 2.326 0.683 2.326 0.707 2.538 1.064 7.434 4.277 9.696 6.568l0.656 0.688c0.171 0.187 0.365 0.406 0.485 0.579 0.4 0.531 0.602 1.187 0.602 1.845 0 0.733-0.224 1.414-0.651 1.971l-0.674 0.73-0.152 0.155c-2.051 2.224-7.408 5.861-10.211 6.974l-0.422 0.162c-0.509 0.182-1.222 0.4-1.654 0.421-0.55 0-1.077-0.128-1.578-0.381-0.626-0.358-1.112-0.898-1.393-1.547l-0.008-0.021c-0.176-0.453-0.451-1.818-0.451-1.843-0.254-1.376-0.4-3.549-0.421-5.984zM0 16c0-1.454 1.168-2.632 2.606-2.632l6.411 0.568c1.13 0 2.045 0.923 2.045 2.064s-0.915 2.064-2.045 2.064l-6.411 0.566c-1.44 0-2.606-1.178-2.606-2.63z"></path>
</svg>
