<!-- Generated by IcoMoon.io -->
<svg version="1.1" xmlns="http://www.w3.org/2000/svg" width="32" height="32" viewBox="0 0 32 32">
<title>cart1</title>
<path fill="none" stroke="#fff" stroke-linejoin="round" stroke-linecap="round" stroke-miterlimit="4" stroke-width="2.6667" d="M12 30c0.736 0 1.333-0.597 1.333-1.333s-0.597-1.333-1.333-1.333v0c-0.736 0-1.333 0.597-1.333 1.333s0.597 1.333 1.333 1.333v0zM26.667 30c0.736 0 1.333-0.597 1.333-1.333s-0.597-1.333-1.333-1.333v0c-0.736 0-1.333 0.597-1.333 1.333s0.597 1.333 1.333 1.333v0zM1.333 2h5.333l3.573 17.853c0.251 1.233 1.327 2.147 2.616 2.147 0.018 0 0.036-0 0.054-0.001l-0.003 0h12.96c0.015 0 0.033 0 0.051 0 1.289 0 2.364-0.914 2.613-2.13l0.003-0.017 2.133-11.187h-22.667"></path>
</svg>
