<!-- Generated by IcoMoon.io -->
<svg version="1.1" xmlns="http://www.w3.org/2000/svg" width="32" height="32" viewBox="0 0 32 32">
<title>cart</title>
<path fill="none" stroke="#ff800b" stroke-linejoin="round" stroke-linecap="round" stroke-miterlimit="4" stroke-width="2.9091" d="M12.033 29.222c0.023 0.001 0.049 0.002 0.076 0.002 0.731 0 1.324-0.593 1.324-1.324s-0.593-1.324-1.324-1.324c-0.027 0-0.053 0.001-0.080 0.002l0.004-0c-0.704 0.034-1.262 0.613-1.262 1.322s0.558 1.288 1.259 1.322l0.003 0zM26.579 29.222c0.023 0.001 0.049 0.002 0.076 0.002 0.731 0 1.324-0.593 1.324-1.324s-0.593-1.324-1.324-1.324c-0.027 0-0.053 0.001-0.080 0.002l0.004-0c-0.704 0.034-1.262 0.613-1.262 1.322s0.558 1.288 1.259 1.322l0.003 0zM1.455 1.455h5.289l3.545 17.706c0.249 1.222 1.316 2.128 2.594 2.128 0.018 0 0.036-0 0.053-0.001l-0.003 0h12.852c0.016 0 0.034 0.001 0.052 0.001 1.278 0 2.344-0.906 2.591-2.111l0.003-0.017 2.115-11.095h-22.48"></path>
</svg>
