<!-- Generated by IcoMoon.io -->
<svg version="1.1" xmlns="http://www.w3.org/2000/svg" width="32" height="32" viewBox="0 0 32 32">
<title>linkedin</title>
<path fill="#545761" d="M31.992 31.238h0.008v-11.179c0-5.467-1.234-9.679-7.948-9.679-3.226 0-5.391 1.685-6.275 3.285h-0.094v-2.775h-6.363v20.346h6.627v-10.074c0-2.653 0.527-5.219 3.977-5.219 3.398 0 3.45 3.028 3.45 5.388v9.906h6.619zM0.529 10.891h6.633v20.347h-6.633v-20.347zM3.843 0.762c-2.121 0-3.843 1.64-3.843 3.66 0 2.019 1.722 3.694 3.843 3.694s3.843-1.673 3.843-3.694c-0.003-2.021-1.725-3.66-3.843-3.66z"></path>
</svg>
