<!-- Generated by IcoMoon.io -->
<svg version="1.1" xmlns="http://www.w3.org/2000/svg" width="32" height="32" viewBox="0 0 32 32">
<title>payment</title>
<path fill="#fff" d="M31.001 20c0 0 0 0 0 0-0.552 0-1 0.447-1.001 0.999v7.001h-28v-12h11.001c0.536-0.021 0.963-0.461 0.963-1s-0.427-0.979-0.961-1l-0.002-0h-11.001v-4h11.001c0.536-0.021 0.963-0.461 0.963-1s-0.427-0.979-0.961-1l-0.002-0h-11.001c-1.104 0-2 0.896-2 2v18c0 1.104 0.896 2 2 2h28c1.104 0 2-0.896 2-2v-7.001c-0.001-0.552-0.449-0.999-1.001-0.999 0 0 0 0 0 0v0z"></path>
<path fill="#fff" d="M9.001 20h-4c-0.529 0.029-0.947 0.466-0.947 0.999s0.418 0.97 0.944 0.999l0.003 0h4c0.536-0.021 0.963-0.461 0.963-1s-0.427-0.979-0.961-1l-0.002-0zM31.395 5.081l-7.002-3.001c-0.117-0.050-0.252-0.079-0.395-0.079s-0.278 0.029-0.402 0.082l0.007-0.003-7.001 3.001c-0.358 0.158-0.603 0.51-0.604 0.919v4c0 5.503 2.035 8.719 7.503 11.869 0.143 0.083 0.315 0.132 0.498 0.132s0.355-0.049 0.503-0.135l-0.005 0.003c5.469-3.143 7.503-6.361 7.503-11.871v-4c0-0 0-0 0-0 0-0.41-0.246-0.762-0.599-0.917l-0.006-0.003zM30 10c0 4.618-1.527 7.161-6 9.84-4.471-2.687-6-5.228-6-9.84v-3.338l6-2.575 6 2.572v3.34z"></path>
<path fill="#fff" d="M27.626 8.218c-0.17-0.135-0.388-0.217-0.625-0.217-0.315 0-0.596 0.145-0.781 0.371l-0.001 0.002-3.143 3.932-1.245-1.86c-0.184-0.249-0.477-0.408-0.806-0.408-0.553 0-1.001 0.448-1.001 1.001 0 0.191 0.053 0.369 0.146 0.52l-0.003-0.004 2.001 3.001c0.175 0.258 0.461 0.429 0.788 0.445l0.002 0h0.041c0 0 0.001 0 0.001 0 0.315 0 0.596-0.146 0.78-0.373l0.002-0.002 4-5.001c0.136-0.17 0.219-0.387 0.219-0.625 0-0.315-0.145-0.596-0.373-0.779l-0.002-0.002z"></path>
</svg>
