<!-- Generated by IcoMoon.io -->
<svg version="1.1" xmlns="http://www.w3.org/2000/svg" width="32" height="32" viewBox="0 0 32 32">
<title>search</title>
<path fill="#ff800b" d="M31.61 29.723l-9.101-9.099c1.758-2.15 2.824-4.926 2.824-7.951 0-0.002 0-0.004 0-0.006v0c0-6.984-5.683-12.667-12.666-12.667-6.984 0-12.667 5.683-12.667 12.667 0 6.982 5.683 12.666 12.667 12.666 0.002 0 0.003 0 0.005 0 3.025 0 5.801-1.066 7.974-2.842l-0.023 0.018 9.099 9.101c0.241 0.242 0.575 0.392 0.943 0.392s0.702-0.15 0.943-0.392l0-0c0.242-0.241 0.392-0.575 0.392-0.943s-0.15-0.702-0.392-0.943l-0-0zM12.666 22.667c-5.521-0.005-9.995-4.479-10-9.999v-0.001c0.005-5.521 4.479-9.995 9.999-10h0.001c5.521 0.005 9.995 4.479 10 9.999v0.001c-0.005 5.521-4.479 9.995-9.999 10h-0.001z"></path>
</svg>
