<!-- Generated by IcoMoon.io -->
<svg version="1.1" xmlns="http://www.w3.org/2000/svg" width="32" height="32" viewBox="0 0 32 32">
<title>shipped</title>
<path fill="#fff" d="M29.76 14.461l-0.829-3.316c0.228-0.049 0.397-0.249 0.397-0.489v-0.534c0-1.161-0.945-2.105-2.105-2.105h-3.775v-1.103c-0.001-0.572-0.464-1.035-1.036-1.036h-19.239c-0.572 0.001-1.035 0.464-1.036 1.036v9.085c0 0.277 0.224 0.501 0.501 0.501s0.501-0.224 0.501-0.501v0-9.085c0-0.019 0.015-0.033 0.033-0.033h19.239c0.019 0 0.033 0.015 0.033 0.033v9.085c0 0.277 0.225 0.502 0.502 0.502s0.502-0.225 0.502-0.502v0-0.567h5.911c0.727 0 1.345 0.479 1.556 1.135h-1.556c-0 0-0.001 0-0.001 0-0.276 0-0.5 0.224-0.5 0.5 0 0 0 0.001 0 0.002v-0 1.069c0 0.865 0.704 1.571 1.571 1.571h0.567v2.204h-1.309c-0.444-1.254-1.618-2.136-2.999-2.138h-0c-1.388 0-2.569 0.896-2.999 2.138h-0.241v-3.775c0-0.277-0.224-0.501-0.501-0.501s-0.501 0.224-0.501 0.501v0 3.775h-10.396c-0.444-1.254-1.618-2.136-2.999-2.138h-0c-1.386 0-2.569 0.896-2.998 2.138h-2.88c-0.018 0-0.033-0.015-0.033-0.033v0-1.103h2.169c0.277 0 0.501-0.224 0.501-0.501s-0.224-0.501-0.501-0.501v0h-4.809c-0.277 0-0.502 0.225-0.502 0.502s0.225 0.502 0.502 0.502v0h1.638v1.101c0 0.572 0.465 1.036 1.036 1.036h2.705v0.033c0 1.75 1.423 3.174 3.172 3.174 1.752-0.002 3.172-1.422 3.174-3.174v-0.034h11.292l-0.001 0.033c0 1.75 1.424 3.174 3.174 3.174 1.752-0.002 3.171-1.422 3.172-3.174v-0.034h1.636c0.276 0 0.502-0.224 0.502-0.502v-5.344c0-1.319-0.975-2.415-2.24-2.608zM23.447 9.018h3.775c0.608 0 1.103 0.495 1.103 1.103v0.033h-4.877v-1.136zM23.447 14.429v-3.273h4.452l0.819 3.273h-5.271zM9.052 25.12c-1.197 0-2.17-0.975-2.17-2.172s0.975-2.172 2.17-2.172c1.197 0 2.172 0.975 2.172 2.172s-0.975 2.172-2.172 2.172zM26.689 25.12c-1.197 0-2.172-0.975-2.172-2.172s0.975-2.172 2.172-2.172c1.197 0 2.17 0.975 2.17 2.172s-0.975 2.172-2.17 2.172zM30.998 18.705h-0.567c-0.313 0-0.567-0.254-0.567-0.567v0-0.567h1.135v1.135z"></path>
<path fill="#fff" d="M9.053 21.913c-0.011-0-0.025-0.001-0.038-0.001-0.573 0-1.037 0.464-1.037 1.037s0.464 1.037 1.037 1.037c0.014 0 0.028-0 0.042-0.001l-0.002 0c0.556-0.022 0.998-0.477 0.998-1.036s-0.443-1.015-0.997-1.036l-0.002-0zM26.689 21.913c-0.572 0-1.036 0.465-1.036 1.037s0.464 1.037 1.037 1.037c0 0 0 0 0.001 0h-0c0.572-0 1.036-0.465 1.036-1.037s-0.464-1.037-1.037-1.037c-0 0-0 0-0.001 0h0zM20.81 19.775h-7.482c-0.277 0-0.501 0.224-0.501 0.501s0.224 0.501 0.501 0.501v0h7.482c0.277 0 0.502-0.225 0.502-0.502s-0.225-0.502-0.502-0.502v0zM7.984 17.636h-6.415c-0.277 0-0.501 0.224-0.501 0.501s0.224 0.501 0.501 0.501v0h6.415c0.265-0.015 0.475-0.233 0.475-0.501s-0.21-0.486-0.473-0.501l-0.001-0zM17.423 10.836c-0.091-0.090-0.216-0.146-0.354-0.146s-0.263 0.056-0.354 0.146v0l-4.455 4.455-2.319-2.319c-0.091-0.091-0.216-0.147-0.354-0.147-0.277 0-0.501 0.224-0.501 0.501 0 0.138 0.056 0.264 0.147 0.354l2.672 2.673c0.090 0.091 0.216 0.148 0.354 0.148s0.264-0.056 0.354-0.148l4.81-4.81c0.091-0.091 0.147-0.216 0.147-0.354s-0.056-0.264-0.147-0.354v0z"></path>
</svg>
