<!-- Generated by IcoMoon.io -->
<svg version="1.1" xmlns="http://www.w3.org/2000/svg" width="32" height="32" viewBox="0 0 32 32">
<title>smartphone</title>
<path fill="#fff" d="M8.532 23.466h4.268c0.283-0.015 0.506-0.248 0.506-0.533s-0.223-0.518-0.505-0.533l-0.001-0h-4.268c-0.283 0.015-0.506 0.248-0.506 0.533s0.223 0.518 0.505 0.533l0.001 0z"></path>
<path fill="#fff" d="M0.97 25.609c0.17 0.241 0.368 0.524 0.598 0.899 0.095 0.151 0.193 0.303 0.294 0.457 0.436 0.534 0.716 1.178 0.806 1.862v1.574c0 0.884 0.716 1.6 1.6 1.6v0h6.4c0.884 0 1.6-0.716 1.6-1.6v0-2.134c0.005-0.202 0.118-0.377 0.284-0.468l0.003-0.001c1.060-0.553 1.95-1.291 2.659-2.18l0.013-0.017h0.241c0.191 0 0.383-0.026 0.567-0.077l1.658 2.506c0.668 0.915 1.738 1.503 2.944 1.503 0.218 0 0.431-0.019 0.639-0.056l-0.022 0.003c0.262-0.044 0.527 0.058 0.689 0.266l1.017 1.501c0.312 0.455 0.83 0.749 1.416 0.749 0.359 0 0.692-0.11 0.967-0.299l-0.006 0.004 5.907-4.095c0.375-0.253 0.634-0.644 0.72-1.088 0.021-0.099 0.033-0.212 0.033-0.329 0-0.345-0.105-0.666-0.284-0.933l0.004 0.006c-0.161-0.36-0.255-0.78-0.255-1.221 0-0.18 0.016-0.356 0.046-0.528l-0.003 0.018 0.020-0.41c0.015-0.461-0.012-0.916-0.038-1.356-0.003-0.015-0.013-0.186-0.023-0.358l-0.006-0.137c-0.099-2.295-0.836-4.4-2.037-6.165l0.026 0.041-3.124-4.614c-0.395-0.603-1.067-0.996-1.832-0.996-0.4 0-0.774 0.107-1.096 0.295l0.010-0.006c-0.395 0.242-0.699 0.599-0.869 1.024l-0.005 0.014c-0.352-0.269-0.798-0.431-1.282-0.431-0.889 0-1.651 0.547-1.967 1.323l-0.005 0.014c-0.352-0.266-0.797-0.426-1.28-0.426-0.141 0-0.278 0.014-0.411 0.039l0.013-0.002v-9.251c0-1.177-0.954-2.132-2.132-2.132h-9.6c-1.178 0-2.134 0.956-2.134 2.134v7.014c-0.14-0.042-0.303-0.071-0.471-0.081l-0.006-0h-0.095c-0.811 0.004-1.478 0.614-1.57 1.401l-0.001 0.007c-0.087 0.736-0.228 1.465-0.426 2.18-0.138 0.452-0.285 0.829-0.457 1.193l0.023-0.055c-0.337 0.648-0.559 1.406-0.618 2.209l-0.001 0.019c-0.015 0.458 0.003 0.945 0.020 1.415 0.017 0.438 0.035 0.89 0.023 1.306-0.007 0.281-0.031 0.714-0.058 1.204-0.058 1.066-0.129 2.393-0.081 3.025 0.010 0.963 0.346 1.891 0.954 2.637zM18.893 12.879l0.598 0.881c0.038 0.053 0.083 0.097 0.135 0.133l0.002 0.001 0.029 0.020c0.048 0.030 0.104 0.053 0.164 0.066l0.004 0.001h0.026c0.024 0.005 0.053 0.009 0.082 0.010l0.001 0c0.026-0.002 0.050-0.006 0.073-0.011l-0.003 0.001c0.087-0.009 0.166-0.038 0.233-0.083l-0.002 0.001c0.142-0.097 0.234-0.259 0.234-0.442 0-0.111-0.034-0.215-0.093-0.301l0.001 0.002c-0.115-0.168-0.184-0.375-0.184-0.599 0-0.589 0.478-1.067 1.067-1.067 0.366 0 0.688 0.184 0.881 0.464l0.002 0.004 0.596 0.892c0.098 0.13 0.253 0.213 0.426 0.213 0.295 0 0.534-0.239 0.534-0.534 0-0.102-0.029-0.198-0.078-0.279l0.001 0.002c-0.115-0.168-0.184-0.375-0.184-0.598 0-0.386 0.206-0.725 0.513-0.912l0.005-0.003c0.154-0.083 0.336-0.132 0.53-0.132 0.399 0 0.749 0.206 0.951 0.517l0.003 0.004 3.124 4.615c1.067 1.568 1.737 3.484 1.826 5.55l0.001 0.022 0.029 0.512c0.025 0.433 0.049 0.844 0.035 1.255-0.003 0.128-0.012 0.257-0.019 0.388-0.028 0.175-0.043 0.377-0.043 0.583 0 0.649 0.157 1.261 0.435 1.8l-0.010-0.022c0.069 0.101 0.111 0.226 0.111 0.36 0 0.223-0.114 0.419-0.286 0.533l-0.002 0.001-5.905 4.092c-0.101 0.069-0.226 0.11-0.36 0.11-0.22 0-0.415-0.111-0.53-0.28l-0.001-0.002-1.025-1.514c-0.325-0.446-0.846-0.732-1.433-0.732-0.095 0-0.188 0.007-0.279 0.022l0.010-0.001c-0.147 0.030-0.315 0.047-0.488 0.047-0.837 0-1.579-0.403-2.044-1.025l-0.005-0.007-1.876-2.836v-0.007c0-0.003-0.004-0.004-0.006-0.009l-1.423-2.153c-0.391-0.577-0.435-1.564 0.124-1.943l0.593-0.454 3.583 5.261c0.096 0.152 0.263 0.252 0.453 0.252 0.295 0 0.534-0.239 0.534-0.534 0-0.12-0.040-0.231-0.107-0.32l0.001 0.001-3.846-5.644c-0.015-0.046-0.035-0.086-0.059-0.123l0.001 0.002c-0.018-0.019-0.037-0.037-0.057-0.053l-0.001-0.001-6.176-9.062c-0.099-0.159-0.158-0.352-0.158-0.558 0-0.59 0.478-1.068 1.068-1.068 0.351 0 0.662 0.169 0.857 0.43l0.002 0.003 4.46 6.49c0.095 0.155 0.264 0.257 0.456 0.257 0.295 0 0.534-0.239 0.534-0.534 0-0.124-0.042-0.237-0.113-0.328l0.001 0.001-0.291-0.422-0.006-0.017c-0.115-0.168-0.183-0.375-0.183-0.598 0-0.589 0.477-1.066 1.066-1.066 0.366 0 0.689 0.184 0.881 0.465l0.002 0.004zM13.334 8.556l-0.364-0.529c-0.387-0.585-1.042-0.966-1.786-0.966-1.178 0-2.134 0.955-2.134 2.134 0 0.459 0.145 0.884 0.391 1.232l-0.004-0.007 0.441 0.647c-1.091-0.349-1.868-1.354-1.868-2.541 0-1.47 1.192-2.662 2.662-2.662s2.662 1.192 2.662 2.662c0 0.003 0 0.006 0 0.009v-0 0.022zM13.334 1.066v0.534c0 0.295-0.239 0.534-0.534 0.534h-4.266c-0.295 0-0.534-0.239-0.534-0.534v0-0.534h5.334zM4.8 2.134c0-0.589 0.479-1.068 1.068-1.068h1.066v0.534c0 0.884 0.716 1.6 1.6 1.6v0h4.266c0.884 0 1.6-0.716 1.6-1.6v0-0.534h1.068c0.589 0 1.066 0.479 1.066 1.068v9.808c-0.186 0.18-0.337 0.393-0.447 0.625l-1.905-2.775c0.138-0.374 0.218-0.807 0.218-1.258 0-2.062-1.672-3.734-3.734-3.734s-3.734 1.672-3.734 3.734c0 2.062 1.672 3.734 3.734 3.734 0.001 0 0.002 0 0.003 0h0.026l4.692 6.89-0.612 0.47c-1.087 0.736-1.075 2.385-0.387 3.404l0.993 1.504h-9.513c-0 0-0.001 0-0.001 0-0.589 0-1.066-0.477-1.066-1.066 0-0 0-0.001 0-0.002v0-6.327c0.628-1.366 0.989-2.838 1.065-4.339h0.003c0-1.628-0.503-2.545-1.068-3.062v-7.606zM1.164 20.003c0.026-0.5 0.051-0.945 0.058-1.233 0.012-0.451-0.006-0.919-0.023-1.373-0.017-0.473-0.035-0.919-0.020-1.341 0.052-0.64 0.233-1.265 0.529-1.837 0.189-0.413 0.352-0.838 0.484-1.273 0.211-0.769 0.364-1.552 0.457-2.345 0.029-0.262 0.247-0.464 0.513-0.467h0.088c0.235 0.018 0.449 0.096 0.63 0.22l-0.004-0.003c0.042 0.045 0.091 0.082 0.145 0.111l0.003 0.001c0.39 0.33 0.777 0.993 0.777 2.337-0.001 0.006-0.001 0.014-0.001 0.021 0 0.020 0.003 0.038 0.009 0.056l-0-0.001c0.092 1.571-1.044 4.113-1.312 4.247-0.177 0.088-0.297 0.268-0.297 0.476 0 0.292 0.237 0.529 0.529 0.529 0.002 0 0.004 0 0.006-0h-0v5.338c0 1.178 0.956 2.134 2.134 2.134h7.927c-0.538 0.492-1.13 0.916-1.767 1.268-0.494 0.28-0.822 0.8-0.828 1.397v2.135c0 0 0 0 0 0 0 0.294-0.238 0.533-0.532 0.534h-6.4c-0.295 0-0.534-0.239-0.534-0.534v-1.574c-0.083-0.937-0.439-1.777-0.987-2.457l0.007 0.009c-0.095-0.145-0.189-0.288-0.276-0.431-0.244-0.396-0.454-0.692-0.633-0.951-0.476-0.562-0.765-1.295-0.765-2.096 0-0.002 0-0.004 0-0.007v0c-0.041-0.567 0.029-1.856 0.084-2.892z"></path>
<path fill="#fff" d="M5.332 29.866h0.534c0.283-0.015 0.506-0.248 0.506-0.533s-0.223-0.518-0.505-0.533l-0.001-0h-0.534c-0.283 0.015-0.506 0.248-0.506 0.533s0.223 0.518 0.505 0.533l0.001 0zM8 29.866h1.6c0.008 0 0.018 0.001 0.028 0.001 0.295 0 0.534-0.239 0.534-0.534s-0.239-0.534-0.534-0.534c-0.010 0-0.020 0-0.029 0.001l0.001-0h-1.6c-0.008-0-0.018-0.001-0.028-0.001-0.295 0-0.534 0.239-0.534 0.534s0.239 0.534 0.534 0.534c0.010 0 0.020-0 0.029-0.001l-0.001 0zM25.072 29.196c0 0 0.001 0 0.001 0 0.111 0 0.215-0.034 0.3-0.093l-0.002 0.001 0.441-0.3c0.159-0.094 0.264-0.265 0.264-0.461 0-0.295-0.239-0.534-0.534-0.534-0.124 0-0.237 0.042-0.328 0.112l0.001-0.001-0.442 0.298c-0.143 0.097-0.236 0.259-0.236 0.442 0 0.294 0.238 0.532 0.532 0.532 0.001 0 0.001 0 0.002 0h-0zM27.28 27.7c0.111-0 0.215-0.034 0.3-0.093l-0.002 0.001 1.9-1.287c0.163-0.093 0.271-0.266 0.271-0.465 0-0.295-0.239-0.534-0.534-0.534-0.127 0-0.243 0.044-0.334 0.118l0.001-0.001-1.901 1.287c-0.141 0.097-0.233 0.258-0.233 0.441 0 0.294 0.238 0.533 0.532 0.534h0z"></path>
</svg>
