<!-- Generated by IcoMoon.io -->
<svg version="1.1" xmlns="http://www.w3.org/2000/svg" width="32" height="32" viewBox="0 0 32 32">
<title>twitter</title>
<path fill="#fff" d="M31.429 5.707c-0.113-0.136-0.282-0.221-0.471-0.221-0.109 0-0.212 0.029-0.301 0.079l0.003-0.002c-0.267 0.128-0.539 0.235-0.819 0.317 0.437-0.6 0.768-1.283 0.973-2.013 0.091-0.365-0.112-0.744-0.453-0.84-0.050-0.015-0.107-0.023-0.166-0.023-0.139 0-0.267 0.047-0.369 0.126l0.001-0.001c-0.886 0.526-1.91 0.967-2.992 1.271l-0.091 0.022c-2.208-2.24-5.573-2.517-8.077-0.669-1.928 1.4-2.989 3.819-2.768 6.307-4.179-0.381-8.027-2.605-10.624-6.144-0.119-0.157-0.304-0.257-0.514-0.257-0.011 0-0.021 0-0.032 0.001l0.001-0c-0.222 0.018-0.41 0.148-0.51 0.333l-0.002 0.003c-0.88 1.547-1.136 3.413-0.707 5.168 0.219 0.901 0.597 1.749 1.112 2.499-0.247-0.132-0.461-0.281-0.654-0.451l0.004 0.003c-0.107-0.095-0.249-0.152-0.405-0.152-0.204 0-0.384 0.099-0.496 0.252l-0.001 0.002c-0.088 0.118-0.141 0.267-0.141 0.428 0 0.001 0 0.002 0 0.004v-0c0.037 2.547 1.339 4.875 3.413 6.107-0.311-0.040-0.59-0.106-0.858-0.196l0.032 0.009c-0.339-0.112-0.693 0.096-0.797 0.459-0.018 0.060-0.028 0.13-0.028 0.201 0 0.1 0.020 0.196 0.057 0.283l-0.002-0.005c0.901 2.165 2.701 3.747 4.853 4.267-1.58 0.98-3.498 1.562-5.551 1.562-0.424 0-0.843-0.025-1.254-0.073l0.050 0.005c-0.022-0.003-0.048-0.004-0.074-0.004-0.293 0-0.539 0.199-0.611 0.469l-0.001 0.004c-0.020 0.063-0.032 0.136-0.032 0.211 0 0.251 0.13 0.471 0.325 0.598l0.003 0.002c2.679 1.745 5.941 2.811 9.447 2.888l0.020 0c3.38-0.023 6.497-1.126 9.030-2.98l-0.044 0.030c5.077-3.619 8.24-10.112 7.803-15.925 1.085-0.861 2.027-1.915 2.784-3.115 0.063-0.106 0.101-0.233 0.101-0.37 0-0.179-0.064-0.342-0.171-0.469l0.001 0.001z"></path>
</svg>
