<!-- Generated by IcoMoon.io -->
<svg version="1.1" xmlns="http://www.w3.org/2000/svg" width="32" height="32" viewBox="0 0 32 32">
<title>youtube</title>
<path fill="#545761" d="M30.702 7.313c-0.827-1.442-1.725-1.707-3.554-1.807-1.829-0.122-6.423-0.172-10.402-0.172-3.992 0-8.587 0.050-10.412 0.169-1.826 0.105-2.726 0.366-3.561 1.812-0.853 1.437-1.291 3.916-1.291 8.28v0.015c0 4.346 0.439 6.843 1.291 8.268 0.835 1.442 1.734 1.702 3.56 1.824 1.827 0.104 6.423 0.166 10.412 0.166 3.98 0 8.574-0.061 10.405-0.165 1.829-0.122 2.728-0.382 3.555-1.824 0.859-1.425 1.295-3.922 1.295-8.268v-0.015c0-4.366-0.436-6.845-1.298-8.283zM12.926 21.201v-11.2l9.536 5.6-9.536 5.6z"></path>
</svg>
